# xmcd
#
# Track frame offsets:
# 150
# 10782
# 24797
# 35942
# 48065
# 61157
# 71847
# 85175
# 101355
# 112310
# 123100
# 135537
#
# Disc length: 1959 seconds
#
#
# Revision: 0
# Processed by: cddbd v1.5PL3 Copyright (c) Steve Scherf et al.
# Submitted via: FreeRIP 2.00 
#
DISCID=9607a50c
DTITLE=George Jones And Tammy Wynette - 36 All Time Greatest Hits Disk 1
DYEAR=2002
DGENRE=Country
TTITLE0=Take Me
TTITLE1=The Ceremony
TTITLE2=We Go Together
TTITLE3=The Great Divide
TTITLE4=Let's Build A World Together
TTITLE5=Touching Shoulders
TTITLE6=We're Gonna Hold On
TTITLE7=My Elusive Dreams
TTITLE8=(We're Not) The Jet Set
TTITLE9=We Loved It Away
TTITLE10=Ain't Love Been Good
TTITLE11=Crawdad Song
EXTD=Entered By Itaot...
EXTT0=
EXTT1=
EXTT2=
EXTT3=
EXTT4=
EXTT5=
EXTT6=
EXTT7=
EXTT8=
EXTT9=
EXTT10=
EXTT11=
PLAYORDER=
